<?xml version="1.0" ?><!DOCTYPE svg  PUBLIC '-//W3C//DTD SVG 1.1//EN'  'http://www.w3.org/Graphics/SVG/1.1/DTD/svg11.dtd'><svg height="100%" style="fill-rule:evenodd;clip-rule:evenodd;stroke-linejoin:round;stroke-miterlimit:1.41421;" version="1.1" viewBox="0 0 48 48" width="100%" xml:space="preserve" xmlns="http://www.w3.org/2000/svg" xmlns:serif="http://www.serif.com/" xmlns:xlink="http://www.w3.org/1999/xlink"><g id="audio_eq_visualization"><path d="M16.471,25.606L16.471,22.438L13.036,22.438C12.742,22.438 12.504,22.201 12.504,21.907L12.502,20.056L12.502,18.735L7.705,18.735L7.705,21.905C7.705,22.199 7.465,22.438 7.173,22.438L5.329,22.438L5.329,21.373L6.642,21.373L6.642,18.202C6.642,17.911 6.88,17.671 7.173,17.671L13.034,17.671C13.326,17.671 13.566,17.911 13.566,18.202L13.566,21.373L17.002,21.373C17.294,21.373 17.534,21.614 17.534,21.905L17.534,25.074L18.463,25.074L18.516,21.897C18.52,21.607 18.756,21.373 19.047,21.373L22.482,21.373L22.482,18.202C22.482,17.911 22.72,17.671 23.013,17.671L30.86,17.671C31.151,17.671 31.391,17.911 31.391,18.202L31.391,25.074L32.236,25.074L32.236,20.054C32.236,19.763 32.475,19.522 32.768,19.522L34.22,19.522L34.22,18.202C34.22,17.911 34.458,17.671 34.752,17.671L36.202,17.671L36.202,16.353C36.202,16.062 36.442,15.822 36.735,15.822L38.186,15.822L38.186,14.503C38.186,14.21 38.424,13.97 38.718,13.97L42.219,13.97L42.219,15.034L39.25,15.034L39.25,16.353C39.25,16.647 39.01,16.885 38.718,16.885L37.267,16.885L37.267,18.202C37.267,18.497 37.027,18.735 36.735,18.735L35.283,18.735L35.283,20.054C35.283,20.348 35.043,20.586 34.752,20.586L33.301,20.586L33.301,25.606C33.301,25.899 33.06,26.137 32.768,26.137L30.86,26.137C30.566,26.137 30.327,25.899 30.327,25.606L30.327,18.735L23.546,18.735L23.546,21.905C23.546,22.199 23.305,22.438 23.013,22.438L19.571,22.438L19.517,25.616C19.513,25.906 19.277,26.137 18.988,26.137L17.002,26.137C16.709,26.137 16.471,25.899 16.471,25.606Z"/><path d="M3.411,35.198L3.411,12.269C3.411,10.599 4.767,9.244 6.437,9.244L41.087,9.244C42.755,9.244 44.115,10.597 44.115,12.269L44.115,35.198C44.115,36.869 42.757,38.224 41.087,38.224L6.437,38.224C4.767,38.224 3.411,36.869 3.411,35.198ZM42.199,35.198L42.199,12.269C42.199,11.659 41.702,11.159 41.087,11.159L6.437,11.159C5.824,11.159 5.326,11.657 5.326,12.269L5.326,35.198C5.326,35.812 5.824,36.31 6.437,36.31L41.087,36.31C41.7,36.31 42.199,35.812 42.199,35.198Z"/><path d="M6.773,13.083C6.773,12.577 7.186,12.164 7.693,12.164C8.199,12.164 8.61,12.577 8.61,13.083C8.61,13.588 8.199,14 7.693,14C7.186,14 6.773,13.588 6.773,13.083ZM9.373,13.083C9.373,12.577 9.785,12.164 10.29,12.164C10.797,12.164 11.21,12.577 11.21,13.083C11.21,13.588 10.797,14 10.29,14C9.785,14 9.373,13.588 9.373,13.083ZM11.972,13.083C11.972,12.577 12.385,12.164 12.889,12.164C13.396,12.164 13.808,12.577 13.808,13.083C13.808,13.588 13.396,14 12.889,14C12.385,14 11.972,13.588 11.972,13.083Z"/><path d="M6.418,34.76L6.418,33.6L7.578,33.6L7.578,34.76L6.418,34.76ZM8.401,34.76L8.401,33.6L9.559,33.6L9.559,34.76L8.401,34.76ZM10.384,34.76L10.384,33.6L11.542,33.6L11.542,34.76L10.384,34.76ZM12.368,34.76L12.368,33.6L13.527,33.6L13.527,34.76L12.368,34.76ZM14.351,34.76L14.351,33.6L15.511,33.6L15.511,34.76L14.351,34.76ZM16.334,34.76L16.334,33.6L17.494,33.6L17.494,34.76L16.334,34.76ZM18.319,34.76L18.319,33.6L19.477,33.6L19.477,34.76L18.319,34.76ZM20.275,34.76L20.275,33.6L21.435,33.6L21.435,34.76L20.275,34.76ZM22.258,34.76L22.258,33.6L23.416,33.6L23.416,34.76L22.258,34.76ZM24.242,34.76L24.242,33.6L25.399,33.6L25.399,34.76L24.242,34.76ZM26.225,34.76L26.225,33.6L27.385,33.6L27.385,34.76L26.225,34.76ZM28.208,34.76L28.208,33.6L29.368,33.6L29.368,34.76L28.208,34.76ZM30.191,34.76L30.191,33.6L31.351,33.6L31.351,34.76L30.191,34.76ZM32.177,34.76L32.177,33.6L33.334,33.6L33.334,34.76L32.177,34.76ZM33.996,34.76L33.996,33.6L35.156,33.6L35.156,34.76L33.996,34.76ZM35.979,34.76L35.979,33.6L37.137,33.6L37.137,34.76L35.979,34.76ZM37.962,34.76L37.962,33.6L39.121,33.6L39.121,34.76L37.962,34.76ZM39.946,34.76L39.946,33.6L41.105,33.6L41.105,34.76L39.946,34.76ZM6.418,32.909L6.418,31.752L7.578,31.752L7.578,32.909L6.418,32.909ZM8.401,32.909L8.401,31.752L9.559,31.752L9.559,32.909L8.401,32.909ZM10.384,32.909L10.384,31.752L11.542,31.752L11.542,32.909L10.384,32.909ZM12.368,32.909L12.368,31.752L13.527,31.752L13.527,32.909L12.368,32.909ZM14.351,32.909L14.351,31.752L15.511,31.752L15.511,32.909L14.351,32.909ZM16.334,32.909L16.334,31.752L17.494,31.752L17.494,32.909L16.334,32.909ZM18.319,32.909L18.319,31.752L19.477,31.752L19.477,32.909L18.319,32.909ZM20.275,32.909L20.275,31.752L21.435,31.752L21.435,32.909L20.275,32.909ZM22.258,32.909L22.258,31.752L23.416,31.752L23.416,32.909L22.258,32.909ZM24.242,32.909L24.242,31.752L25.399,31.752L25.399,32.909L24.242,32.909ZM26.225,32.909L26.225,31.752L27.385,31.752L27.385,32.909L26.225,32.909ZM28.208,32.909L28.208,31.752L29.368,31.752L29.368,32.909L28.208,32.909ZM30.191,32.909L30.191,31.752L31.351,31.752L31.351,32.909L30.191,32.909ZM32.177,32.909L32.177,31.752L33.334,31.752L33.334,32.909L32.177,32.909ZM33.996,32.909L33.996,31.752L35.156,31.752L35.156,32.909L33.996,32.909ZM35.979,32.909L35.979,31.752L37.137,31.752L37.137,32.909L35.979,32.909ZM37.962,32.909L37.962,31.752L39.121,31.752L39.121,32.909L37.962,32.909ZM39.946,32.909L39.946,31.752L41.105,31.752L41.105,32.909L39.946,32.909ZM6.418,31.06L6.418,29.9L7.578,29.9L7.578,31.06L6.418,31.06ZM8.401,31.06L8.401,29.9L9.559,29.9L9.559,31.06L8.401,31.06ZM10.384,31.06L10.384,29.9L11.542,29.9L11.542,31.06L10.384,31.06ZM12.368,31.06L12.368,29.9L13.527,29.9L13.527,31.06L12.368,31.06ZM14.351,31.06L14.351,29.9L15.511,29.9L15.511,31.06L14.351,31.06ZM16.334,31.06L16.334,29.9L17.494,29.9L17.494,31.06L16.334,31.06ZM18.319,31.06L18.319,29.9L19.477,29.9L19.477,31.06L18.319,31.06ZM20.275,31.06L20.275,29.9L21.435,29.9L21.435,31.06L20.275,31.06ZM22.258,31.06L22.258,29.9L23.416,29.9L23.416,31.06L22.258,31.06ZM24.242,31.06L24.242,29.9L25.399,29.9L25.399,31.06L24.242,31.06ZM26.225,31.06L26.225,29.9L27.385,29.9L27.385,31.06L26.225,31.06ZM28.208,31.06L28.208,29.9L29.368,29.9L29.368,31.06L28.208,31.06ZM30.191,31.06L30.191,29.9L31.351,29.9L31.351,31.06L30.191,31.06ZM32.177,31.06L32.177,29.9L33.334,29.9L33.334,31.06L32.177,31.06ZM33.996,31.06L33.996,29.9L35.156,29.9L35.156,31.06L33.996,31.06ZM35.979,31.06L35.979,29.9L37.137,29.9L37.137,31.06L35.979,31.06ZM37.962,31.06L37.962,29.9L39.121,29.9L39.121,31.06L37.962,31.06ZM39.946,31.06L39.946,29.9L41.105,29.9L41.105,31.06L39.946,31.06ZM6.42,29.111L6.42,27.953L7.578,27.953L7.578,29.111L6.42,29.111ZM8.403,29.111L8.403,27.953L9.561,27.953L9.561,29.111L8.403,29.111ZM10.386,29.111L10.386,27.953L11.544,27.953L11.544,29.111L10.386,29.111ZM12.37,29.111L12.37,27.953L13.529,27.953L13.529,29.111L12.37,29.111ZM14.353,29.111L14.353,27.953L15.513,27.953L15.513,29.111L14.353,29.111ZM16.336,29.111L16.336,27.953L17.496,27.953L17.496,29.111L16.336,29.111ZM20.277,29.111L20.277,27.953L21.435,27.953L21.435,29.111L20.277,29.111ZM22.26,29.111L22.26,27.953L23.418,27.953L23.418,29.111L22.26,29.111ZM24.244,29.111L24.244,27.953L25.401,27.953L25.401,29.111L24.244,29.111ZM26.227,29.111L26.227,27.953L27.387,27.953L27.387,29.111L26.227,29.111ZM28.21,29.111L28.21,27.953L29.37,27.953L29.37,29.111L28.21,29.111ZM30.193,29.111L30.193,27.953L31.353,27.953L31.353,29.111L30.193,29.111ZM32.177,29.111L32.177,27.953L33.336,27.953L33.336,29.111L32.177,29.111ZM33.999,29.111L33.999,27.953L35.156,27.953L35.156,29.111L33.999,29.111ZM35.982,29.111L35.982,27.953L37.139,27.953L37.139,29.111L35.982,29.111ZM37.965,29.111L37.965,27.953L39.123,27.953L39.123,29.111L37.965,29.111ZM39.948,29.111L39.948,27.953L41.107,27.953L41.107,29.111L39.948,29.111ZM6.418,27.261L6.418,26.102L7.578,26.102L7.578,27.261L6.418,27.261ZM8.401,27.261L8.401,26.102L9.561,26.102L9.561,27.261L8.401,27.261ZM10.384,27.261L10.384,26.102L11.544,26.102L11.544,27.261L10.384,27.261ZM12.37,27.261L12.37,26.102L13.527,26.102L13.527,27.261L12.37,27.261ZM14.353,27.261L14.353,26.102L15.511,26.102L15.511,27.261L14.353,27.261ZM20.275,27.261L20.275,26.102L21.435,26.102L21.435,27.261L20.275,27.261ZM22.258,27.261L22.258,26.102L23.418,26.102L23.418,27.261L22.258,27.261ZM24.242,27.261L24.242,26.102L25.401,26.102L25.401,27.261L24.242,27.261ZM26.227,27.261L26.227,26.102L27.385,26.102L27.385,27.261L26.227,27.261ZM28.21,27.261L28.21,26.102L29.368,26.102L29.368,27.261L28.21,27.261ZM33.996,27.261L33.996,26.102L35.156,26.102L35.156,27.261L33.996,27.261ZM35.979,27.261L35.979,26.102L37.139,26.102L37.139,27.261L35.979,27.261ZM37.962,27.261L37.962,26.102L39.123,26.102L39.123,27.261L37.962,27.261ZM39.948,27.261L39.948,26.102L41.105,26.102L41.105,27.261L39.948,27.261ZM6.418,25.41L6.418,24.252L7.578,24.252L7.578,25.41L6.418,25.41ZM8.401,25.41L8.401,24.252L9.561,24.252L9.561,25.41L8.401,25.41ZM10.384,25.41L10.384,24.252L11.544,24.252L11.544,25.41L10.384,25.41ZM12.37,25.41L12.37,24.252L13.527,24.252L13.527,25.41L12.37,25.41ZM14.353,25.41L14.353,24.252L15.511,24.252L15.511,25.41L14.353,25.41ZM20.275,25.41L20.275,24.252L21.435,24.252L21.435,25.41L20.275,25.41ZM22.258,25.41L22.258,24.252L23.418,24.252L23.418,25.41L22.258,25.41ZM24.242,25.41L24.242,24.252L25.401,24.252L25.401,25.41L24.242,25.41ZM26.227,25.41L26.227,24.252L27.385,24.252L27.385,25.41L26.227,25.41ZM28.21,25.41L28.21,24.252L29.368,24.252L29.368,25.41L28.21,25.41ZM33.996,25.41L33.996,24.252L35.156,24.252L35.156,25.41L33.996,25.41ZM35.979,25.41L35.979,24.252L37.139,24.252L37.139,25.41L35.979,25.41ZM37.962,25.41L37.962,24.252L39.123,24.252L39.123,25.41L37.962,25.41ZM39.948,25.41L39.948,24.252L41.105,24.252L41.105,25.41L39.948,25.41ZM8.401,23.559L8.401,22.401L9.561,22.401L9.561,23.559L8.401,23.559ZM10.384,23.559L10.384,22.401L11.544,22.401L11.544,23.559L10.384,23.559ZM24.242,23.559L24.242,22.401L25.401,22.401L25.401,23.559L24.242,23.559ZM26.227,23.559L26.227,22.401L27.385,22.401L27.385,23.559L26.227,23.559ZM28.21,23.559L28.21,22.401L29.368,22.401L29.368,23.559L28.21,23.559ZM33.996,23.559L33.996,22.401L35.156,22.401L35.156,23.559L33.996,23.559ZM35.979,23.559L35.979,22.401L37.139,22.401L37.139,23.559L35.979,23.559ZM37.962,23.559L37.962,22.401L39.123,22.401L39.123,23.559L37.962,23.559ZM39.948,23.559L39.948,22.401L41.105,22.401L41.105,23.559L39.948,23.559ZM8.401,21.71L8.401,20.55L9.559,20.55L9.559,21.71L8.401,21.71ZM10.384,21.71L10.384,20.55L11.542,20.55L11.542,21.71L10.384,21.71ZM24.242,21.71L24.242,20.55L25.399,20.55L25.399,21.71L24.242,21.71ZM26.225,21.71L26.225,20.55L27.385,20.55L27.385,21.71L26.225,21.71ZM28.208,21.71L28.208,20.55L29.368,20.55L29.368,21.71L28.208,21.71ZM35.979,21.71L35.979,20.55L37.137,20.55L37.137,21.71L35.979,21.71ZM37.962,21.71L37.962,20.55L39.121,20.55L39.121,21.71L37.962,21.71ZM39.946,21.71L39.946,20.55L41.105,20.55L41.105,21.71L39.946,21.71ZM37.962,19.858L37.962,18.7L39.121,18.7L39.121,19.858L37.962,19.858ZM39.946,19.858L39.946,18.7L41.105,18.7L41.105,19.858L39.946,19.858ZM39.946,18.009L39.946,16.85L41.105,16.85L41.105,18.009L39.946,18.009Z" id="Group_33"/></g></svg>